/* XPM */
static char *ee02740dcadc4fa5ebb202807ab3ab631VsgE9uRSIvm0Czi[] = {
/* columns rows colors chars-per-pixel */
"32 32 7 1 ",
"  c #020001",
". c #040000",
"X c #050100",
"o c #040001",
"O c #060000",
"+ c #070101",
"@ c #080202",
/* pixels */
"+++++++++++++++                 ",
"++++ ++  ++  ++++               ",
"++++++++++++++                  ",
"++++++ ++ ++++++                ",
"++++ ++  ++ +++ +               ",
"++++++++++++ +++                ",
"+++++++++++++++ +               ",
"++++ ++  ++ ++++                ",
"+++++++++++++++                 ",
"+++++++++  ++  ++               ",
"+++++++ ++++++++                ",
"+++++++++ ++++ ++               ",
"+++++++++ ++ ++                 ",
"@++++++++++++++                 ",
"@++++++++++ +++++               ",
"@++++++++ ++ ++                 ",
"+++ + ++XXXXXXXX                ",
"+++++++ XXXXXXXX                ",
"++++++++XXXXXXXX                ",
"+++++ ++XXXXXXXX                ",
"++++ ++ XXXXXXXX                ",
"++++++++XXXX +XX                ",
"++++++++XXXX+  +                ",
"++++ +++XXXX+ ++                ",
"++++++++XXXXX++                 ",
"++++ ++ XXXX+                   ",
"++++++++XXXX   +                ",
"+++ ++ +XXXXX++                 ",
"++++ ++ + XX+++                 ",
"++++++++ +XX   +                ",
"++++++++ ++ +                   ",
"++++ ++ + +++ +                 "
};
