/* XPM */
static char *_858e580bdfc4891a75a9396eef2f7a2WX9bgxeHSn19T94D[] = {
/* columns rows colors chars-per-pixel */
"32 32 172 2 ",
"   c None",
".  c #000100",
"X  c #001200",
"o  c #221700",
"O  c #261F00",
"+  c #002000",
"@  c #002B00",
"#  c #003200",
"$  c #07340D",
"%  c #003811",
"&  c #163210",
"*  c #183F12",
"=  c #1D331B",
"-  c #332B19",
";  c #273711",
":  c #2A3712",
">  c #000036",
",  c #4A3A1E",
"<  c #633F2E",
"1  c #014301",
"2  c #004A0E",
"3  c #1C4800",
"4  c #004A15",
"5  c #0C4D12",
"6  c #144E13",
"7  c #1C4D14",
"8  c #1E4918",
"9  c #194212",
"0  c #1D5115",
"q  c #394000",
"w  c #234F16",
"e  c #214F1D",
"r  c #23531B",
"t  c #2A521A",
"y  c #255117",
"u  c #30541C",
"i  c #226919",
"p  c #24741B",
"a  c #277E1D",
"s  c #525100",
"d  c #44471E",
"f  c #484525",
"g  c #5A4A29",
"h  c #58542E",
"j  c #5E5E34",
"k  c #614F2C",
"l  c #63512C",
"z  c #735C27",
"x  c #6D5931",
"c  c #675534",
"v  c #725E34",
"b  c #796337",
"n  c #7A6439",
"m  c #776839",
"M  c #7D693B",
"N  c #746537",
"B  c #002B45",
"V  c #323A44",
"C  c #29455B",
"Z  c #374857",
"A  c #30505D",
"S  c #264964",
"D  c #324C62",
"F  c #3E5061",
"G  c #454E59",
"H  c #47555F",
"J  c #58595B",
"K  c #635A43",
"L  c #635D53",
"P  c #7D6C4E",
"I  c #66635D",
"U  c #6E675C",
"Y  c #7F6E50",
"T  c #756957",
"R  c #7F715B",
"E  c #445566",
"W  c #4D5A63",
"Q  c #525A63",
"!  c #535D69",
"~  c #5F6061",
"^  c #5B636D",
"/  c #7E7769",
"(  c #836B3C",
")  c #8B713F",
"_  c #927A3C",
"`  c #8C7342",
"'  c #8B754D",
"]  c #947A45",
"[  c #987D47",
"{  c #9A7F48",
"}  c #857253",
"|  c #8E7953",
" . c #887556",
".. c #937D54",
"X. c #009D1B",
"o. c #308521",
"O. c #2D9222",
"+. c #359C2A",
"@. c #39AC2D",
"#. c #36B329",
"$. c #9E8148",
"%. c #A2864D",
"&. c #A6894E",
"*. c #AB8C4D",
"=. c #B3924D",
"-. c #A68951",
";. c #AB8D51",
":. c #A48957",
">. c #AF9053",
",. c #B39354",
"<. c #BC9B56",
"1. c #B69759",
"2. c #BB9A59",
"3. c #928267",
"4. c #9A8B76",
"5. c #AA926A",
"6. c #A99475",
"7. c #B5A07F",
"8. c #C29E54",
"9. c #C19F5B",
"0. c #EF9758",
"q. c #E99556",
"w. c #C4A25D",
"e. c #CBA75C",
"r. c #CEA85F",
"t. c #D2AC5E",
"y. c #CAA661",
"u. c #CEAA62",
"i. c #C5A464",
"p. c #D3AE63",
"a. c #D6B166",
"s. c #DAB365",
"d. c #D6B168",
"f. c #DBB569",
"g. c #C8AA73",
"h. c #DAB774",
"j. c #DCB975",
"k. c #DDBB7C",
"l. c #D7B67C",
"z. c #E4AE65",
"x. c #E3BB6C",
"c. c #FBB66A",
"v. c #E2BD76",
"b. c #E2BE7B",
"n. c #EDC36F",
"m. c #F1C66C",
"M. c #F4C86B",
"N. c #ECC372",
"B. c #E5C17C",
"V. c #EBC57C",
"C. c #F1C773",
"Z. c #F4CA75",
"A. c #F9CE75",
"S. c #F9CE79",
"D. c #FDD17A",
"F. c #B19F85",
"G. c #B9A482",
"H. c #AEA393",
"J. c #C3AB85",
"K. c #C5AE89",
"L. c #C9AF86",
"P. c #CCB286",
"I. c #C7B089",
"U. c #CCB38A",
"Y. c #D2B583",
"T. c #D7B882",
"R. c #DCBC83",
"E. c #D4B98B",
"W. c #D1B689",
"Q. c #CFB893",
"!. c #D1B994",
"~. c #E2C186",
/* pixels */
"                            M ` g                               ",
"                        M w.N.S.a.;.-                           ",
"                    ( u.C.Z.C.N.Z.N.N.=.B                       ",
"              . %.p.Z.C.C.N.N.N.N.N.V.K.Y.[                     ",
"          g %.v.C.Z.N.N.N.N.m.N.k.K.6.l.C.Z.%.                  ",
"      z ;.x.Z.Z.N.N.N.C.n.N.Y.P.4...@ _ n.Z.Z.l                 ",
"    1.k.A.C.N.N.N.N.M.B.R.F.6.K s @ t . f.1.w.(                 ",
"  *.R.J.J.v.m.C.n.B.P.G.3.m # 1 4 t 4 d w.h f.v                 ",
"  -.A.N.l.J.J.v.L.7.3.k . @ 8 w w 7 6 ; p.0.c.j                 ",
"  -.Z.n.C.N.j.H.5.: O X.+.o.p * 7 7 0 % z.q.s.v                 ",
"  &.Z.N.N.N.M.!.A X @.@.i O.p * 0 7 5 : p.f <.(                 ",
"  &.Z.N.N.N.m.!.Q X +.@.a O.p * 7 7 2 f w., a.v                 ",
"  &.Z.N.N.N.m.!.H 1 = O.O.& 7 7 7 y t @ u.v.D.k                 ",
"  &.Z.N.N.N.m.!.H 1 r & & 0 7 t 7 1 . N C.x.9.N                 ",
"  &.Z.N.N.N.m.!.H 1 r 0 r t y # @ m w.a.*. .>                   ",
"  &.Z.N.N.N.m.!.H 1 t t 6 # % ) p.t.1.L ! D } { `               ",
"  &.S.Z.N.N.m.!.A 3 4 # & %.y.d.%.I D Q  .<.p.w.]               ",
"  o ,.s.Z.n.n.Q./ . h &.a.e...L S ~ | u.e.w.-.$.u.2.            ",
"  V C U %.a.M.!.R.8.p.8...Z ! H :.w.p.>.>.&.*.1.>.f.2.          ",
"  c | Q F I [ 7.g.e.U ! S R %.t.e.1.%.>.%.8.g.V.I.:.s.y.        ",
"  %.Z.<.| G ^ Z Z F E T 1.p.w.,.;.%.,.1.j.R.R.P.b.U.:.u.a.      ",
"  2.Z.Z.n.a.' Y } P 9.e.e.&.&.;.*.i.j.R.T.l.T.k.P.R.E.2.e.d.n   ",
"M Z.N.N.N.Z.N.N.Z.z.&.1.%.;.;.e.k.b.U.k.P.R.Y.Y.~.b.x.,.>.x.( . ",
"l C.Z.N.N.N.N.C.a.,.[ y.f.( V.E.k.I.b.P.k.P.B.B.s.,.%.>.%.%.f.n ",
"  ` 9.N.Z.Z.N.N.` x.S.,.w.d.,.k.U.b.I.b.R.N.y.=.&.&.;.;.f.Z.D.) ",
"      v ,.N.Z.Z.` x.N.C.2.9.p.=.v.E.V.h.p.&.;.;.%.2.f.D.Z.y.b   ",
"          , ;.z.{ x.C.N.Z.2.2.p.;.f.9.;.%.;.&.2.N.S.C.2.n       ",
"              h x f.C.Z.N.Z.y.1.f.>.;.&.;.9.C.S.N.*.x           ",
"                  . { p.Z.C.S.u.;.,.%.p.N.D.f.*.-               ",
"                        ( 9.C.D.f.y.S.Z.f.` f                   ",
"                            x 2.N.Z.u.] .                       ",
"                                b `                             "
};
