/* XPM */
static char *e941e1b9b877493bfe94c90e1f1df165Dm0g4oHLUkEe1wap[] = {
/* columns rows colors chars-per-pixel */
"32 32 246 2 ",
"   c #17191B",
".  c #100F0F",
"X  c #251419",
"o  c #351116",
"O  c #172C14",
"+  c #1E311E",
"@  c #091F22",
"#  c #121A30",
"$  c #231D29",
"%  c #281926",
"&  c #31172B",
"*  c #1C2728",
"=  c #19352B",
"-  c #0C2234",
";  c #173837",
":  c #0E212F",
">  c #24252C",
",  c #2A2B2D",
"<  c #282627",
"1  c #332826",
"2  c #23362A",
"3  c #2B2C32",
"4  c #2D2735",
"5  c #392734",
"6  c #33323A",
"7  c #393339",
"8  c #2C3734",
"9  c #571F04",
"0  c #7A3012",
"q  c #4B1A27",
"w  c #511930",
"e  c #472837",
"r  c #44373B",
"t  c #532C33",
"y  c #60373E",
"u  c #75352A",
"i  c #6F0E30",
"p  c #07443C",
"a  c #2C4235",
"s  c #374D32",
"d  c #326F3D",
"f  c #754339",
"g  c #45473A",
"h  c #151C47",
"j  c #261A45",
"k  c #182748",
"l  c #183942",
"z  c #0C324E",
"x  c #232B58",
"c  c #2E394E",
"v  c #1A3471",
"b  c #373568",
"n  c #4A3C45",
"m  c #423942",
"M  c #5A384A",
"N  c #533152",
"B  c #693547",
"V  c #71334F",
"C  c #463666",
"Z  c #194656",
"A  c #284547",
"S  c #394648",
"D  c #3A5559",
"F  c #39735D",
"G  c #2F6F48",
"H  c #284466",
"J  c #2F4F6D",
"K  c #22627E",
"L  c #47454A",
"P  c #59404A",
"I  c #574F56",
"U  c #685149",
"Y  c #79445A",
"T  c #6B4C52",
"R  c #4E6955",
"E  c #736A5E",
"W  c #475478",
"Q  c #755A64",
"!  c #4E637A",
"~  c #7C6877",
"^  c #796F6C",
"/  c #872E16",
"(  c #A33600",
")  c #893533",
"_  c #9A4C32",
"`  c #A04C27",
"'  c #DA6D34",
"]  c #932D4D",
"[  c #B03E6E",
"{  c #8F3D65",
"}  c #8A4C4C",
"|  c #9E635B",
" . c #B7664B",
".. c #A66859",
"X. c #894966",
"o. c #9D5C69",
"O. c #8F506A",
"+. c #A95977",
"@. c #857579",
"#. c #936A73",
"$. c #BC7F6E",
"%. c #B95351",
"&. c #CF7446",
"*. c #D37875",
"=. c #1F805D",
"-. c #288161",
";. c #558378",
":. c #6B9173",
">. c #5EA267",
",. c #6FA578",
"<. c #89867D",
"1. c #F68C56",
"2. c #EBA27F",
"3. c #F39160",
"4. c #375888",
"5. c #365294",
"6. c #1A6091",
"7. c #366E8D",
"8. c #3A6AAA",
"9. c #47598E",
"0. c #6F578A",
"q. c #546B83",
"w. c #5B7194",
"e. c #507395",
"r. c #656B85",
"t. c #6A6998",
"y. c #64799B",
"u. c #737A8C",
"i. c #486BAB",
"p. c #6979B7",
"a. c #567BC1",
"s. c #BB5E8A",
"d. c #8E7782",
"f. c #926F8B",
"g. c #A96784",
"h. c #B6668A",
"j. c #A67885",
"k. c #B87B96",
"l. c #AD748F",
"z. c #C35381",
"x. c #C86D92",
"c. c #C87897",
"v. c #CE7AA1",
"b. c #79899A",
"n. c #719491",
"m. c #66A185",
"M. c #7688A8",
"N. c #728AB7",
"B. c #549093",
"V. c #7394CC",
"C. c #8A858D",
"Z. c #929394",
"A. c #A7848B",
"S. c #AD8C95",
"D. c #9EA89D",
"F. c #908EA2",
"G. c #8B8FB0",
"H. c #A89CA8",
"J. c #B38CAB",
"K. c #B8B6B6",
"L. c #B5ACAE",
"P. c #D0919B",
"I. c #C78BA6",
"U. c #D683A7",
"Y. c #C695AD",
"T. c #D795B6",
"R. c #CF98AE",
"E. c #E78DAE",
"W. c #C8A9B8",
"Q. c #D6BCB6",
"!. c #C8B2B1",
"~. c #E6B1BC",
"^. c #B4CEB5",
"/. c #B2E4B8",
"(. c #CBD1B8",
"). c #AB99CC",
"_. c #8EADD2",
"`. c #B5BCEA",
"'. c #A1ADD7",
"]. c #C8ACC3",
"[. c #D5B8C7",
"{. c #CAB9D7",
"}. c #D3B3CC",
"|. c #E8BACA",
" X c #E7AED1",
".X c #E9B9D3",
"XX c #F7BBD7",
"oX c #F0ACCC",
"OX c #F1BDE8",
"+X c #C7AAD9",
"@X c #BBC9D7",
"#X c #B6D4CF",
"$X c #B5E4C0",
"%X c #B7CFF1",
"&X c #B8E8FE",
"*X c #98C6DA",
"=X c #C8C9C9",
"-X c #D7CAC8",
";X c #CAD4CB",
":X c #D8D9CA",
">X c #C8CBD7",
",X c #DAC7D8",
"<X c #CAD9D7",
"1X c #D5D4D3",
"2X c #D8D8D9",
"3X c #E3C8C8",
"4X c #E3D9CE",
"5X c #EACBDC",
"6X c #E8C6D8",
"7X c #F6C5DB",
"8X c #E6D9D8",
"9X c #F6D0D4",
"0X c #C7E2C9",
"qX c #C9E7D8",
"wX c #DDE3DD",
"eX c #D5E5D7",
"rX c #E4E6DB",
"tX c #E8E8D2",
"yX c #C8CCE6",
"uX c #D7CBE6",
"iX c #C7D5E9",
"pX c #D5D5E2",
"aX c #DCD6E6",
"sX c #DBDDE3",
"dX c #D9D8EA",
"fX c #D7CAF3",
"gX c #D6DBF7",
"hX c #C7D6FF",
"jX c #E9CAE9",
"kX c #F8C7E6",
"lX c #E5D6E8",
"zX c #F7D4E5",
"xX c #E6CAF2",
"cX c #E7CAF7",
"vX c #E6DBF7",
"bX c #F8D6F7",
"nX c #CDE4EC",
"mX c #D9E7E7",
"MX c #CEE3F9",
"NX c #D4E4F9",
"BX c #DBF1F1",
"VX c #E6E6E7",
"CX c #F4ECEC",
"ZX c #E5E2F3",
"AX c #E8E5FB",
"SX c #FAE3FA",
/* pixels */
"1 g a Z i.5.e.*X5.6.F =.6.6.i.*Xi.`.{.].oXx.+.~.k.o.V M M m L r ",
"1 + = l 5.5.e.@Xe.# F G 7.7.4.N.y.fXgXOXkXU.{ x.XXI.V M 5 6 7 6 ",
"* 8 R D ! u.b.-X#.& K.=X#XiX%XyXiX>XgXaXY.l.v.x.XXE.h.Y m S c 7 ",
", L ^ E U U #.9XS.!.9X-XCXmX<XAXAXdXmXsX6XXX7XkXv.x.h.V 5 7 7 7 ",
"o y <.2.&./ _ P.3X9X2X2X2X2XAXAX2X2X2XwXzXzX6X7XT.U.v.O.q 4 5 m ",
"q f ' 3.' ( _ 3.Q.8X2XwXmXmX@XdXCX8XrXVX8X5XlX.XjXXXOXT.O.Q N q ",
"q f  .3.1.' _ | 3X[.8XrX;X:XBXqX<XVX2X2XbXbXuXgXlXcXbXOXI.g.X.i ",
"X t _ &.1. .u O.,XZX8X-XwX:XmX#XmXqXmXZXlXxXvXfXfXjXkXOXY.k.k.O.",
"1 X 9 0 ` 0 M ].gXgXdXlX4X4X2XmXqXnXnX@XfX).fXcXxXxXkXbX5XR.l.h.",
"O u _  ./ u f.G.M.w.M.K.8XrXVX<X<XG.n._.V.f.).cXcXOXkXkX5X6XR.I.",
"f ..$.%.i o.0.9.e.7.9.M.>X2XuXAXuXF.M.%XgXgX`.p.G.J. XkXzXSX7X7X",
"f ) ] ) ) ] C p.*X&X*XN.>XCXlXpX{.lXhXBXhXV._.e.t.f.J. XkXzX5XzX",
"o.XXE.h.B e b N.NXNXvXfX!.;XrXqXlXjXG.NX%XV.e.K 9.f.f.k.XXkXjXjX",
"T.7X.Xk.t X $ W r.! F.{.2XeXeXqX1XH.r.q.9.H z B.K u.S.l.6XbXbXxX",
"|.|..XX.X m > @ . n.@X>XlXwXeXrXVX<XnXb.w.J y.%XH.F.>XH.,XuXxXOX",
"[.7X6XA.t e E n.#X%XiXpXZXlX:X:XwXeXnXMXgXgXnXMXBXC.5XJ..XxXcXbX",
"}.6X7Xl.B y L.-XwX;XmX!.@.C.^ [.wXwXdXgXAXBXqXmX0X<.9Xv.z.x. XcX",
"|.5X6XS.Y f !.(.-XrX;XD.7 7 I ^ ;X2XmXsXmXrXqX$X,.R ~.E.+.] l.,X",
"J..XzXQ.@.r S.(.4X:X=X^.Z.L.lX2X:XeX2XVXeXqX/.>.d s ~.E.[ +.k..X",
"g.I.6X-X<.o E Q.3X-XCX8X;X=X8X2XtXtX:XrXtX/./.>.d >.-XI.x.U.XXzX",
"{ X.k.g.T o y R.3X4X3X#.@.d.d.Q E (.4X4X:X(.^.<.d :.pXL.J. XzX8X",
"w B g.X.w o q A.4X9X#.q Q [.[.Y . S.:XtXtX(.^.>.G ;.%XyXcXbX5X6X",
"o N g.+.V w t #.-X3XA.y #.|.6Xj.@.!.1X2XtXeX/.,.F B.%X&XbXbXoXR.",
"& 5 B Y } w q j.8X=X-X^ P f.S.].5XlXpXmX0X0X/.m.p B.&XhXcXkXh.i ",
"% &   & T e X U !.1XqX;X;X>X,XzXuXvXdXmXmX^.m.R p Z N.N.`.f.{ i ",
"$ 4 * < c e < < K.:XqX#XqXVXVX,XZXvX>XpX<XZ.R p p - z 9.t.N V +.",
"$ 4 c c < < =   I D.<XqX>X>X1X<X=XsXlXpXZ.8 . 2 ; - J H x 4 J.oX",
"$ $ S S 3 < = = . r b.K.2X2X<XmX;X#XC.n , 8 8 8 c @ ! z k # W.zX",
"$ $ $ 5 7 4 < * < X % n Q I L L a + < , ; @ ; B.D - h x x j N +X",
"* 6 4 4 7 7 , 3 3 , < & &   + , O 2 7 > 3 c l A l h b x h b j 0.",
"@ # 4 #     % % * = *   * > % < O O < & 4 h # x h b _.9.v 8.i.v ",
"D S S L S L P n L S a A S S n r s a n N N b J M.W y.`.V.a.V.V.8."
};
