/* XPM */
static char *_f4ab38e50974623c258dd1f213156747IHKYH9pUtOL78Mn[] = {
/* columns rows colors chars-per-pixel */
"32 32 135 2 ",
"   c None",
".  c #BD0008",
"X  c #BE0112",
"o  c #BE0B18",
"O  c #BE111C",
"+  c #C20000",
"@  c #C90000",
"#  c #CE0009",
"$  c #DD0000",
"%  c #D9000A",
"&  c #CE0112",
"*  c #D70113",
"=  c #DA0011",
"-  c #D40C19",
";  c #C1151F",
":  c #C9161F",
">  c #D4121C",
",  c #E30000",
"<  c #E9000E",
"1  c #E90716",
"2  c #E9131E",
"3  c #C21620",
"4  c #CB1720",
"5  c #C41C24",
"6  c #CB1C24",
"7  c #DD1720",
"8  c #D41C24",
"9  c #DB1C25",
"0  c #E41C24",
"q  c #EB1E27",
"w  c #F01E26",
"e  c #F61F28",
"r  c #C12027",
"t  c #CF2027",
"y  c #C3232A",
"u  c #CA232A",
"i  c #D32027",
"p  c #DB2027",
"a  c #D02128",
"s  c #DC2229",
"d  c #C32D32",
"f  c #D42C31",
"g  c #C53439",
"h  c #DB3338",
"j  c #E82027",
"k  c #E4242B",
"l  c #EB242B",
"z  c #E0282E",
"x  c #E02A30",
"c  c #ED2D33",
"v  c #F53B3F",
"b  c #E43F43",
"n  c #CA4145",
"m  c #CE494C",
"M  c #DD4145",
"N  c #D04B4F",
"B  c #C7575A",
"V  c #CC565A",
"C  c #C55D5F",
"Z  c #CD595B",
"A  c #D35256",
"S  c #D3575A",
"D  c #DD575A",
"F  c #D75A5C",
"G  c #DA5B5E",
"H  c #E44044",
"J  c #EB4347",
"K  c #ED474A",
"L  c #F24C4F",
"P  c #FC4C4F",
"I  c #EE4F52",
"U  c #F14E51",
"Y  c #E25154",
"T  c #EC5053",
"R  c #E65A5C",
"E  c #EF5A5C",
"W  c #EF5A5D",
"Q  c #ED5A5E",
"!  c #ED5B5D",
"~  c #EE5D5F",
"^  c #F05457",
"/  c #FA5255",
"(  c #F05458",
")  c #FD5C5F",
"_  c #C65F61",
"`  c #D15E61",
"'  c #D55D61",
"]  c #D55F60",
"[  c #D75F62",
"{  c #D15E61",
"}  c #DC5F61",
"|  c #DD5F61",
" . c #DF5E60",
".. c #DF5F60",
"X. c #DF5E61",
"o. c #DD5F62",
"O. c #E05E60",
"+. c #E25F61",
"@. c #E35F61",
"#. c #EE5D60",
"$. c #EF5D60",
"%. c #ED5E60",
"&. c #ED5F62",
"*. c #EF5F62",
"=. c #F05F62",
"-. c #FD5F62",
";. c #C66264",
":. c #CB6466",
">. c #CD6668",
",. c #D66061",
"<. c #D36365",
"1. c #D16466",
"2. c #D96062",
"3. c #DC6062",
"4. c #DB6466",
"5. c #E16163",
"6. c #E16264",
"7. c #E76365",
"8. c #E76567",
"9. c #ED6063",
"0. c #EF6162",
"q. c #EE6063",
"w. c #EE6163",
"e. c #EE6264",
"r. c #E86466",
"t. c #EB6466",
"y. c #E86568",
"u. c #E86668",
"i. c #EA6769",
"p. c #EB6769",
"a. c #F76163",
"s. c #F76164",
"d. c #FD6063",
"f. c #F26668",
"g. c #F36668",
/* pixels */
"                        a.9.~ ~ E ~ 0.%.                        ",
"                  0.e.) P v c l l c b P ) a.0.                  ",
"              ! g./ j < < 1 2 2 2 2 1 < < j / f.!               ",
"            t.d.j , 2 q j j 0 j q q q w 0 q , q -.7.            ",
"          u.U , q j 0 0 0 0 q 0 0 0 0 0 q 2 j 0 , L u.          ",
"        u.K , l 0 0 0 0 0 0 0 0 0 0 0 0 0 0 0 0 l , J u.        ",
"      7.U $ k 0 q q 0 0 0 0 0 0 0 0 0 0 0 0 w q 0 k $ I t.      ",
"    R s.$ k 0 e 0   q 9 2 0 9 0 0 0 9 0 9 w   0 e 0 k , s.R     ",
"    t.s > j q 0       q 0 9 0 0 9 0 0 0 q       9 0 0 2 p i.    ",
"  @.( $ k 9 q 9         w 9 9 9 9 9 9 w         0 q 9 p $ T 5.  ",
"  6.x 7 > 9 9 q 0         q 9 9 9 0 q         9 q 9 9 9 9 z 5.  ",
"  %.= 9 9 9 9 9 q 9         q 9 9 q         9 q 9 9 9 9 9 = %.  ",
"..T % s 9 8 9 9 9 q 9         q q         9 q 9 9 9 9 9 p % I ..",
"..H * s 8 9 9 8 9 8 0 9         8       9 q 8 9 8 9 8 8 p * b ..",
"} h - i 8 9 8 9 8 8 8 q 8             9 q 8 8 9 8 8 8 9 9 - h 3.",
"G f > 9 8 8 8 8 8 8 9 8 q 8         8 0 8 8 8 8 8 8 8 8 i > f F ",
"} f > a 8 8 8 8 8 8 8 8 0 i         8 0 8 8 8 8 8 8 8 8 8 4 f F ",
"' h - 8 8 8 6 8 8 8 8 0                 k 8 6 8 6 8 6 8 8 - h o.",
"' M & a 6 8 8 6 6 6 s         8 8         0 6 8 8 8 8 8 8 & M ' ",
"' Y # 8 6 6 8 6 6 0         8 0 s 6         9 6 6 6 6 6 t # Y ' ",
"  +.& 6 6 6 6 6 9         6 9 6 6 9 8         s 6 6 6 6 6 & ..  ",
"  1.f 4 6 6 6 9         6 9 6 6 6 6 9 6         9 6 6 6 6 f <.  ",
"  <.F @ u 6 i 6       6 9 6 6 6 6 6 6 9 6       6 8 6 u @ D `   ",
"    1.u 5 6 6 6     6 9 5 6 5 5 6 6 5 5 9 5     6 6 5 4 u 1.    ",
"    V 4.@ u 6 9 5 5 8 6 5 6 5 5 5 5 5 5 5 i 6 5 s 5 u + 6.Z     ",
"      :.A + u 5 6 8 5 5 5 5 5 5 5 5 5 5 5 5 8 6 5 u + A 1.      ",
"        >.m . y r 5 5 5 5 5 5 5 5 5 5 5 5 5 5 r u . m >.        ",
"          :.S + ; r 5 5 5 5 5 5 5 5 5 5 5 5 y ; . A :.          ",
"            :.4.y . ; r r r r r 5 r r r 5 ; . y 4.:.            ",
"              B :.S d X . X o O O o . . X d S :.B               ",
"                  _ ;.` V n g d d g n A ` ;._                   ",
"                        C _ C C C _ _ _                         "
};
