/* XPM */
static char *ae09d5d029794e42f37e8281901e2e37TqhLUa7uhFCe299B[] = {
/* columns rows colors chars-per-pixel */
"32 32 184 2 ",
"   c None",
".  c #0C1100",
"X  c #490E00",
"o  c #520000",
"O  c #411F00",
"+  c #471A01",
"@  c #541E00",
"#  c #542300",
"$  c #5A2702",
"%  c #513000",
"&  c #5A3107",
"*  c #6D2409",
"=  c #653D00",
"-  c #7D3300",
";  c #6D3E11",
":  c #9A0718",
">  c #813400",
",  c #933C00",
"<  c #8C3015",
"1  c #A33817",
"2  c #BF0023",
"3  c #B73221",
"4  c #CD0025",
"5  c #C90D28",
"6  c #D7072A",
"7  c #DF0030",
"8  c #E6002D",
"9  c #E60730",
"0  c #E60837",
"q  c #F30035",
"w  c #E51B33",
"e  c #E21F38",
"r  c #E81A38",
"t  c #DE2D2D",
"y  c #CD3F26",
"u  c #D73D2E",
"i  c #D83A2B",
"p  c #C73636",
"a  c #D63E3F",
"s  c #E3222D",
"d  c #E72436",
"f  c #EA2C34",
"g  c #E72438",
"h  c #E9253A",
"j  c #E92A38",
"k  c #EA3134",
"l  c #E03538",
"z  c #EB323F",
"x  c #EF393B",
"c  c #E93E34",
"v  c #F03E37",
"b  c #9D4514",
"n  c #B3591D",
"m  c #9E6C1F",
"M  c #9A4922",
"N  c #B84724",
"B  c #B44E2C",
"V  c #A75620",
"C  c #AE5325",
"Z  c #AB6720",
"A  c #AA612E",
"S  c #B06121",
"D  c #B66A25",
"F  c #AF7222",
"G  c #BE792B",
"H  c #CF412C",
"J  c #C34E25",
"K  c #D84F2D",
"L  c #D45B2C",
"P  c #D6552C",
"I  c #D64039",
"U  c #D75D30",
"Y  c #DF5B30",
"T  c #E4532E",
"R  c #EC4033",
"E  c #E44830",
"W  c #EB4C34",
"Q  c #ED4D3D",
"!  c #F0423E",
"~  c #E75634",
"^  c #EE5234",
"/  c #E65D34",
"(  c #EF543C",
")  c #EF5C3B",
"_  c #EA5834",
"`  c #F15435",
"'  c #F25D3F",
"]  c #CA6F2B",
"[  c #D6662C",
"{  c #C27729",
"}  c #D7752C",
"|  c #D36030",
" . c #DB6131",
".. c #CB7B30",
"X. c #E9652F",
"o. c #E16635",
"O. c #EC6234",
"+. c #E66C33",
"@. c #ED6E34",
"#. c #EF623D",
"$. c #EF6B39",
"%. c #E67433",
"&. c #E47D33",
"*. c #ED7B35",
"=. c #EC723B",
"-. c #EC7F3A",
";. c #F2733D",
":. c #F1793E",
">. c #EE3441",
",. c #ED3C43",
"<. c #ED4245",
"1. c #EE4942",
"2. c #F24847",
"3. c #EF5744",
"4. c #EB6A43",
"5. c #F16046",
"6. c #F16F48",
"7. c #EF7243",
"8. c #F0734F",
"9. c #F07541",
"0. c #F07157",
"q. c #B98329",
"w. c #D0812F",
"e. c #D8812E",
"r. c #D38A2E",
"t. c #CA912D",
"y. c #D18B34",
"u. c #DE8D33",
"i. c #DB863A",
"p. c #DC9432",
"a. c #DF973B",
"s. c #D79A33",
"d. c #EC8436",
"f. c #E38D36",
"g. c #E08838",
"h. c #E98A39",
"j. c #F38E3D",
"k. c #F2853D",
"l. c #E49435",
"z. c #EC9635",
"x. c #E59B35",
"c. c #EC9B37",
"v. c #E29539",
"b. c #E69C38",
"n. c #ED9C3B",
"m. c #EB943A",
"M. c #F4923E",
"N. c #F29D3B",
"B. c #E3A437",
"V. c #EDA337",
"C. c #ECA936",
"Z. c #E4A339",
"A. c #ECA539",
"S. c #E7AB39",
"D. c #EEAB3C",
"F. c #F6AB33",
"G. c #F2A43B",
"H. c #F4AC3C",
"J. c #F8AD3D",
"K. c #EDB03F",
"L. c #F5B23D",
"P. c #FAB33C",
"I. c #F7BA3E",
"U. c #FCBA3C",
"Y. c #F9C03C",
"T. c #F68345",
"R. c #F38D43",
"E. c #F89C43",
"W. c #F5974F",
"Q. c #F49B48",
"!. c #F89B49",
"~. c #F28355",
"^. c #F0885C",
"/. c #F39252",
"(. c #F4AE44",
"). c #FBAB43",
"_. c #F6AF4A",
"`. c #F3A440",
"'. c #F4B440",
"]. c #FAB642",
"[. c #FABA41",
"{. c #F5B659",
"}. c #F7BB62",
"|. c #FFC044",
/* pixels */
"                                                            %   ",
"                                                            = % ",
"                                                            %   ",
"                                                                ",
"                                                                ",
"                                                                ",
"                    r.H.H.P.b.b   {.{.}.{.                      ",
"  > >           H.P.r.y.].P.v.w.J.H.F.F.J.J.                    ",
"  > , >         H.P.D.n (.H.H.G.p.a.I.L.P.H.'.                  ",
"    - >       C.|.U.[.] f.[.D.n.f.v.J.D.t.H.V.                  ",
"              { G q.S.(.n.(.n.N.G.f.} } G n.C.                  ",
"  #           '.b o p.).n.G.H.G.N.z.L | L } x.H.H.              ",
"              P.'.i.&.&.d.&.G.N.+.z.G.G.l.l.G.l.b.H.            ",
"          '.L.H.P.N.o.+.$. .%.d.d.C.N.z.N.l.D y.A.I.P.          ",
"          P.H.e.| [ K / ~ _ W / d.*.*.*.V @ + F l.p.S.L.        ",
"          I.P.I.&.5 H R c 1 i ` O.X.T ) N . O X Z p.C.L.        ",
"          L.C.n. .7 k f j 3 i v O.O._ ` E < * : ..K.'.          ",
"            H.C.g.2 w w d x W ( #.$./ ^ R s 4 H u.B.            ",
"            I.s.@.7 g g t 3.#.=.;.=.C _ v s 5 [ B.              ",
"          L.N.+.w r g z Q 3.=.k.M.j.-.$.^ d U Z m F.            ",
"          b.m.j.W 0 z x 3.7.M.M.N.G.j.:.` k 9 L p.V.            ",
"          G.d.W r z >.1.4.`.H.H.G.N.M.:.#.v 8 T g.b.L.          ",
"    # & ; [ O.  3.r p 2.R.`.).H.).!.T.:.) ! q X.V.N.b.          ",
"    # # X       x I a 6.R.!.i.n.y.g.T.7.3.M.=.W z.              ",
"    # # $     g   5.T.(.8.W.B.I.w.A ).9.2.      @.F             ",
"        #         7.  Q.0._.U.U.(.!.Y.E.<.B       J             ",
"                1.    ~./.      (./.    4.,.                    ",
"                      ~.          ^.      ,.                    ",
"                                          ,.                    ",
"                                            >.                  ",
"                                                                ",
"                                                                "
};
