/* XPM */
static char *_3727a539e534bb58b85a57bab136c5eTO2uJe9018nSIxJs[] = {
/* columns rows colors chars-per-pixel */
"32 32 170 2 ",
"   c None",
".  c #000001",
"X  c #000002",
"o  c #000102",
"O  c #010102",
"+  c #010203",
"@  c #000303",
"#  c #020203",
"$  c #030304",
"%  c #030405",
"&  c #020506",
"*  c #040505",
"=  c #040506",
"-  c #050506",
";  c #040706",
":  c #020807",
">  c #050708",
",  c #090A0B",
"<  c #0A0C0C",
"1  c #0B0C0D",
"2  c #0C0D0E",
"3  c #0E0F10",
"4  c #101112",
"5  c #101313",
"6  c #111515",
"7  c #121414",
"8  c #121717",
"9  c #141616",
"0  c #151D16",
"q  c #151818",
"w  c #191A1B",
"e  c #1B1C1C",
"r  c #1A1D1C",
"t  c #1A1C1D",
"y  c #15211A",
"u  c #182120",
"i  c #1E2424",
"p  c #202121",
"a  c #202222",
"s  c #242525",
"d  c #262B2A",
"f  c #272F2D",
"g  c #282829",
"h  c #282B2B",
"j  c #303233",
"k  c #313334",
"l  c #333334",
"z  c #323636",
"x  c #353736",
"c  c #383B3A",
"v  c #3A3C3D",
"b  c #384933",
"n  c #3E5239",
"m  c #3A4241",
"M  c #3E4242",
"N  c #404141",
"B  c #414545",
"V  c #464646",
"C  c #474849",
"Z  c #4C4B4C",
"A  c #484C4C",
"S  c #4C4F4F",
"D  c #465C40",
"F  c #4F5151",
"G  c #515454",
"H  c #525556",
"J  c gray33",
"K  c #585A5B",
"L  c #585B5B",
"P  c #5B5C5D",
"I  c #585F5F",
"U  c #5E5F5E",
"Y  c #596060",
"T  c #5B6361",
"R  c #626465",
"E  c #646565",
"W  c #676766",
"Q  c #676767",
"!  c #676868",
"~  c #67696A",
"^  c #686969",
"/  c #686A6B",
"(  c #686B6B",
")  c #696C6C",
"_  c #696C6D",
"`  c #6B6C6D",
"'  c #717374",
"]  c #737576",
"[  c #747676",
"{  c #787777",
"}  c #777778",
"|  c #787A7B",
" . c #797B7B",
".. c #7C7E7F",
"X. c #749965",
"o. c #73916A",
"O. c #81A96E",
"+. c #81AA6E",
"@. c #7E8080",
"#. c #7E8081",
"$. c #7F8081",
"%. c #818283",
"&. c #818383",
"*. c #818384",
"=. c #838586",
"-. c #848585",
";. c #858788",
":. c #868889",
">. c #888A8A",
",. c #888B8B",
"<. c #8B8C8B",
"1. c #898B8C",
"2. c #8A8C8D",
"3. c #8B8D8E",
"4. c #8D8E8F",
"5. c #8D8F90",
"6. c #8D8F91",
"7. c #8F9090",
"8. c #8E9091",
"9. c #8F9091",
"0. c #8E9191",
"q. c #8F9191",
"w. c #8E9092",
"e. c #8F9192",
"r. c gray57",
"t. c #909293",
"y. c #919493",
"u. c #959494",
"i. c #969798",
"p. c #979899",
"a. c #97999A",
"s. c #98999A",
"d. c #9A9C9D",
"f. c #9D9C9D",
"g. c #9C9E9E",
"h. c #9D9E9E",
"j. c #A2A2A2",
"k. c #A2A3A4",
"l. c #AAAAAA",
"z. c #ACACAC",
"x. c #ADADAE",
"c. c #B2B3B3",
"v. c #B4B4B4",
"b. c #B6B6B6",
"n. c #B8B8B9",
"m. c #B9B9B9",
"M. c #B9BAB9",
"N. c gray73",
"B. c #BCBCBC",
"V. c gray75",
"C. c #BFBFC0",
"Z. c #C0C0C0",
"A. c #C1C1C1",
"S. c #C1C1C2",
"D. c #C3C3C3",
"F. c #C4C3C4",
"G. c gray77",
"H. c #C5C5C5",
"J. c gray79",
"K. c #CAC9CA",
"L. c #D3D2D2",
"P. c #D7D6D6",
"I. c #DDDCDB",
"U. c #DEDDDC",
"Y. c #E7E5E4",
"T. c #E9E7E6",
"R. c #EDEBEA",
"E. c #F9F9F9",
"W. c gray99",
"Q. c white",
/* pixels */
"                      8 . ` 8.                                  ",
"                  . +.+.+.+.+.+.: . 8.                          ",
"              ] X.+.+.+.+.+.+.+.+.+.+.0 .                       ",
"            t +.+.+.+.+.+.+.+.+.+.+.+.+.+.n H                   ",
"          8.+.+.+.+.+.+.+.+.+.+.+.+.+.+.+.+.+..                 ",
"          . +.b . . +.+.+.+.+.+.+.+.+.+.+.+.+.+..               ",
"          I . Q.Q.Q.E.+.+.+.+.+.+.+.+.+.+.+.+.+.+..             ",
"          Y Q.Q.Q.Q.Q.. +.+.+.+.+.+.+.+.+.+.+.+.+.+.j           ",
"          Y Q.Q.Q.Q.Q.. +.+.+.+.+.+.+.+.+.+.+.+.+.+.D           ",
"          q . Q.Q.Q.Q.- +.+.Y Y +.+.+.+.+.+.+.+.+.+.+.S         ",
"          . Y . Q.Q.. +.+.+.+.Y h Y +.+.+.+.+.+.+.+.+..         ",
"          . Q.- . f I Y Y Y Y Y Y Y m Y +.+.+.+.+.+.+.y         ",
"          8.. . . . . . t Z { y.h.. . . . Y Y o.+.+.+.I         ",
"            x U A.8.8.8.8.8.1.:.:.:.1.8.8.8.- y Y Y Y .         ",
"            . G.8.. . . 8.G.V.8.8.G.G.8.. . . 8.g.. 6.          ",
"            . G.. . Q.. . - 8.8 , 8.. u.& Q.. . G..             ",
"            6.( ' . Q.B Q.. p.T.G.t.. Q.W Q.. . l 8.            ",
"            2.G.G.<.. . ) . v.U.K.G.$ K . . V.G.G.8.            ",
"            2 8.i.G.Y.G.z.U.c . H V.R.n.G.P.G.t.8.w             ",
"              . v 9 &.. F.G.j.. . G.A.V.. 2.5 C .               ",
".               8.. . . $.G.. . . j G.R . . . t.              . ",
"    .     .       . $.$ >.G.N . . *.G.~ . 8..       .     .     ",
"      . .         .  .8.s.G.2 3 F ~ G.g.8.[ .         . .       ",
"          . .     . L G.4.&.G.A.G.G. .=.G.M .     . .           ",
"            . . . . l E d z.a $.( < W e i A . . . .             ",
"              . . . a.G.C n.7.R.R.l.c.-.J k.. . .               ",
"                  8.4.G.n.M.L.a s K.t.D.G. .4.                  ",
"                    . G.G.G.{ b.g.! G.D.D.8                     ",
"                      . G.G.G.G.D.G.G.G..                       ",
"                      8.& 8.8.8.t.4.t..                         ",
"                        h . ` 8.8.P . 4                         ",
"                        . . 2 8.8.- . .                         "
};
