/* XPM */
static char *_1edcaa310ac46b98d76fd4a0d5d66b5Fct0fUmJNLwC49Z0[] = {
/* columns rows colors chars-per-pixel */
"32 32 146 2 ",
"   c None",
".  c black",
"X  c #080000",
"o  c #000909",
"O  c gray3",
"+  c #150000",
"@  c #1A0B0B",
"#  c #131313",
"$  c #1C1C1C",
"%  c #270C0C",
"&  c #320B0B",
"*  c #232323",
"=  c #2A2A2A",
"-  c #30292A",
";  c #2F3131",
":  c #313231",
">  c #3B3B3B",
",  c #681E1E",
"<  c #483737",
"1  c #423E3E",
"2  c #4A3838",
"3  c #424737",
"4  c #44403F",
"5  c #3E4040",
"6  c #344646",
"7  c #434343",
"8  c #454A4B",
"9  c #4D4C4D",
"0  c #50494B",
"q  c #445254",
"w  c #4A5757",
"e  c #4F5D5E",
"r  c #535353",
"t  c #5F5854",
"y  c #58525D",
"u  c #5C5C5C",
"i  c #525E5E",
"p  c #6C4142",
"a  c #754D4E",
"s  c #645E5E",
"d  c #655555",
"f  c #785958",
"g  c #4F6F51",
"h  c #564F63",
"j  c #5D456E",
"k  c #795F66",
"l  c #4A636F",
"z  c #506162",
"x  c #5E6A66",
"c  c #636363",
"v  c #676866",
"b  c #686867",
"n  c #6C6C6C",
"m  c #6F7563",
"M  c #737373",
"N  c #757A79",
"B  c #7D7D7D",
"V  c #A70000",
"C  c #AD0000",
"Z  c #B30101",
"A  c #BA0C0C",
"S  c #A33434",
"D  c #C3433B",
"F  c #D33750",
"G  c #845B58",
"H  c #B55D5D",
"J  c #8E6976",
"K  c #9F697A",
"L  c #857F7F",
"P  c #C0695D",
"I  c #7B8953",
"U  c #73827D",
"Y  c #A7D540",
"T  c #A86282",
"R  c #B76C8B",
"E  c #BE6890",
"W  c #BD7F98",
"Q  c #C87494",
"!  c #DF7D9D",
"~  c #EE76A7",
"^  c #E47AA2",
"/  c #008AA6",
"(  c #758680",
")  c #7F8B89",
"_  c #728A8A",
"`  c #77908E",
"'  c #7AB7BC",
"]  c #858585",
"[  c #8B8B8B",
"{  c #858A8A",
"}  c #918C91",
"|  c #8F9292",
" . c #949494",
".. c #999697",
"X. c #9A9A9A",
"o. c #80BBBF",
"O. c #C8B195",
"+. c #C58BA0",
"@. c #DB8AA7",
"#. c #E183A5",
"$. c #E480A8",
"%. c #EA8AAD",
"&. c #EE85AC",
"*. c #E990AF",
"=. c #E69FAA",
"-. c #E89FAB",
";. c #E38BB0",
":. c #F48BB5",
">. c #EC91B1",
",. c #F295B7",
"<. c #F892B7",
"1. c #F298B7",
"2. c #F79ABB",
"3. c #F99EBE",
"4. c #FB95BE",
"5. c #D5AFA5",
"6. c #DBB6A8",
"7. c #D5B6A4",
"8. c #E9A0B0",
"9. c #C9C39C",
"0. c #FF9AC4",
"q. c #D5B9C5",
"w. c #DCBFCC",
"e. c #FFA6C7",
"r. c #88CDD2",
"t. c #8DD1D6",
"y. c #8CD3D8",
"u. c #93D6DA",
"i. c #98D7DB",
"p. c #99D8DB",
"a. c #A6DDE1",
"s. c #BAEEEF",
"d. c #B8F5F6",
"f. c #D6C7D4",
"g. c #DACCD4",
"h. c #D4D2D6",
"j. c #E1C7D7",
"k. c #C0EAE7",
"l. c #C7EFEB",
"z. c #D5E7E7",
"x. c #DEECEC",
"c. c #D5ECEC",
"v. c #C3F8F8",
"b. c #D5FFFE",
"n. c #DBFEFD",
"m. c #E4FFFF",
/* pixels */
"                            r.u.u.r.                            ",
"                        a.d.b.m.m.b.d.a.                        ",
"                    i.n.n.x.n.n.n.z.x.m.b.i.                    ",
"                  u.m.x.q.^ w.c.q.;.! h.m.m.u.                  ",
"                  v.n.;.~ 1.%.@.<.:.9.=.f.n.s.                  ",
"                i.m.j.O.5.3.*.#.e.*.0.>.&.g.m.y.                ",
"                o.l.+.-.8.%.2.#.2.^ 0.2.<.+.k.'                 ",
"                + - c T R >.1.*.:.6.7.E K M c %                 ",
"                ; c { U U k J Q Q m g N U  .X.5                 ",
"                = u ] .. .` ) x c [ }  ... .| >                 ",
"                  1 n  .s S p 8 9 7 : c  . .c                   ",
"                  > c | d Z , o @ $ . u  . .u                   ",
"                  $ 0 B [ _ ) { [ [ [ { ..]                     ",
"                    9 N X.] ` T ] ] T  ...]                     ",
"                    = r { b N M M M x X.{ 7                     ",
"    Z                 * 7 M [ ] { { ) x =                 Z     ",
"      Z               * . 0  ... .| t = 4               Z       ",
"      Z Z           # 9 u * 8 u u 8 7 M M 9           C C       ",
"Z Z   & &         # 8 n M c 7 3 > w M n M M 9         < 2   Z Z ",
"  A V 6 7 X     # 9 M n M b y j t t v M n M N r     4 N w V A   ",
"        r 7 O $ 9 u c b N t l / D a g M M s u N y 7 N u         ",
"          r 7 9 9   . > n h I Y F f z b 0 $   9 M N u           ",
"            u 9       . 4 e G P H f i 4 .       9 u             ",
"                        > c 9 q w 9 s >                         ",
"                        : c n b b b M u                         ",
"                        = > b M M n M s                         ",
"                        * = c M M M M s                         ",
"                      5 > : > 7 7 1 w 9 >                       ",
"                    > n M c         u M M >                     ",
"                    b M n u         c n n n                     ",
"                    n M M c         c M M n                     ",
"                    u c c r         r c s u                     "
};
