/* XPM */
static char *_8c6c2d5f87e4807dd6ce6c5a3304f27nS7BZCktepmP5pkp[] = {
/* columns rows colors chars-per-pixel */
"32 32 146 2 ",
"   c None",
".  c black",
"X  c #080000",
"o  c #0A0909",
"O  c #150000",
"+  c #1A0B0B",
"@  c #131313",
"#  c #1B1B1B",
"$  c #270C0C",
"%  c #320B0B",
"&  c #232323",
"*  c #2A2A2A",
"=  c #30292A",
"-  c #2F3131",
";  c #313131",
":  c #3B3B3B",
">  c #483737",
",  c #423E3E",
"<  c #4A3838",
"1  c #424737",
"2  c #44403F",
"3  c #3E4040",
"4  c #344646",
"5  c #434343",
"6  c #4B4749",
"7  c #474A4B",
"8  c #4D4C4D",
"9  c #50494B",
"0  c #445254",
"q  c #4A5757",
"w  c #4F5D5E",
"e  c #535353",
"r  c #5F5854",
"t  c #5C5C5C",
"y  c #55585E",
"u  c #754D4E",
"i  c #6E5253",
"p  c #605F5F",
"a  c #785556",
"s  c #785958",
"d  c #74595A",
"f  c #4F6F51",
"g  c #5A4A69",
"h  c #795F66",
"j  c #4A636F",
"k  c #506162",
"l  c #5E6A66",
"z  c #636363",
"x  c #676866",
"c  c #686867",
"v  c #6C6C6C",
"b  c #6F7563",
"n  c #737373",
"m  c #757A79",
"M  c #7D7D7D",
"N  c #A70000",
"B  c #AD0000",
"V  c #B30101",
"C  c #BA0C0C",
"Z  c #D0181F",
"A  c #DA1318",
"S  c #D51E25",
"D  c #E31E25",
"F  c #DB2027",
"G  c #D1252B",
"H  c #C3433B",
"J  c #D33750",
"K  c #845B58",
"L  c #B55D5D",
"P  c #8E6976",
"I  c #9F697A",
"U  c #857F7F",
"Y  c #A0696A",
"T  c #C0695D",
"R  c #7B8953",
"E  c #73827D",
"W  c #A7D540",
"Q  c #A86282",
"!  c #B76C8B",
"~  c #BE6890",
"^  c #BD7F98",
"/  c #C87494",
"(  c #DF7D9D",
")  c #EE76A7",
"_  c #E47AA2",
"`  c #008AA6",
"'  c #758680",
"]  c #728A8A",
"[  c #7AB7BC",
"{  c #848585",
"}  c #8B8B8B",
"|  c #858A8A",
" . c #92878A",
".. c #8F9292",
"X. c #949494",
"o. c #999697",
"O. c #9A9A9A",
"+. c #80BBBF",
"@. c #C8B195",
"#. c #C58BA0",
"$. c #DB8AA7",
"%. c #E183A5",
"&. c #E480A8",
"*. c #EA8AAD",
"=. c #EE85AC",
"-. c #E990AF",
";. c #E69FAA",
":. c #E89FAB",
">. c #E38BB0",
",. c #F48BB5",
"<. c #EC91B1",
"1. c #F295B7",
"2. c #F892B7",
"3. c #F298B7",
"4. c #F79ABB",
"5. c #FA9ABE",
"6. c #D5AFA5",
"7. c #D8B6A6",
"8. c #E9A0B0",
"9. c #C9C39C",
"0. c #FF9AC4",
"q. c #D5B9C5",
"w. c #DCBFCC",
"e. c #FFA6C7",
"r. c #88CDD2",
"t. c #8DD1D6",
"y. c #8CD3D8",
"u. c #93D6DA",
"i. c #98D7DB",
"p. c #99D8DB",
"a. c #A6DDE1",
"s. c #BAEEEF",
"d. c #B8F5F6",
"f. c #D6C7D4",
"g. c #DACCD4",
"h. c #D4D2D6",
"j. c #E1C7D7",
"k. c #C0EAE7",
"l. c #C7EFEB",
"z. c #D5E7E7",
"x. c #DEECEC",
"c. c #D5ECEC",
"v. c #C3F8F8",
"b. c #D5FFFE",
"n. c #DBFEFD",
"m. c #E4FFFF",
/* pixels */
"                            t.u.u.r.                            ",
"                        a.d.b.m.m.b.d.a.                        ",
"                    i.n.n.x.n.n.n.z.x.n.n.i.                    ",
"                  u.m.x.q._ w.c.q.*.( h.m.m.u.                  ",
"                  v.n.>.) 3.*.$.2.,.9.;.f.n.s.                  ",
"                i.m.j.@.6.0.-.%.e.<.e.<.=.g.m.t.                ",
"                [ l.#.:.8.*.4.%.4._ 0.4.2.#.s.[                 ",
"                O = z Q ! <.1.<.,.7.6.~ I n z $                 ",
"                - z | E m h P / / b f m E X.O.3                 ",
"                * t { o.X.{ Y l x }  .X.o.X...:                 ",
"                  , v X.a D G 6 8 S S d X.X.z                   ",
"                  : z ..u A D o + S Z i X.X.t                   ",
"                  # e M } ] | } }  .} } o.{                     ",
"                    6 m O.U { { { { U X.o.{                     ",
"                    * e | c m n n n z O.| 5                     ",
"    V                 & 5 n } { { } { c *                 V     ",
"      V               & . 8 X.o.o...e - ,               V       ",
"      V V           @ 8 p & 6 t t 6 5 n n 8           B V       ",
"V V   % %         @ 6 v n z 2 1 : e n v n n 8         > <   V V ",
"  C N 4 5 X     @ 8 n n v c y g t e z n v n m e     , m 0 N C   ",
"        e 5 o # 8 p z c n p k ` H u w n n z p m e 5 m p         ",
"          e 5 8 8   . : v g R W J K k c 6 #   9 m m t           ",
"            t 7       . 5 w K T L s y , .       6 t             ",
"                        : p 7 0 q 7 z :                         ",
"                        ; z v c v c n t                         ",
"                        * : c n n v n p                         ",
"                        & * z m n n m t                         ",
"                      : : ; : 5 5 : e 6 :                       ",
"                    : n m t         t n n :                     ",
"                    v n v p         z v n c                     ",
"                    v m n c         z m m v                     ",
"                    e p z e         e p p t                     "
};
