/* XPM */
static char *c9fa2d6926c34f09ac4cf2afd7e42e58clbWO6py2qhBKTb3[] = {
/* columns rows colors chars-per-pixel */
"32 32 134 2 ",
"   c None",
".  c black",
"X  c #000001",
"o  c #000202",
"O  c #010203",
"+  c #020203",
"@  c #000304",
"#  c #040506",
"$  c #040606",
"%  c #040607",
"&  c #060607",
"*  c #030708",
"=  c #060708",
"-  c #060808",
";  c #070D0E",
":  c #08090A",
">  c #09090A",
",  c #080A0A",
"<  c #0A0B0C",
"1  c #0D0D0E",
"2  c #0E0E0F",
"3  c #0B1211",
"4  c #0D1010",
"5  c #0F1415",
"6  c #091418",
"7  c #111213",
"8  c #131616",
"9  c #161617",
"0  c #161718",
"q  c #16191A",
"w  c #191A1B",
"e  c #1C1E1F",
"r  c #17201F",
"t  c #1F1F20",
"y  c #232424",
"u  c #252929",
"i  c #252B2B",
"p  c #292A2A",
"a  c #292A2B",
"s  c #292D2D",
"d  c #2D2C2D",
"f  c #353636",
"g  c #353637",
"h  c #333B3A",
"j  c #373839",
"k  c #373B3B",
"l  c #3D3E3F",
"z  c #3B4341",
"x  c #3D4040",
"c  c #3F4141",
"v  c gray25",
"b  c #414242",
"n  c #484B4B",
"m  c #4B4E4E",
"M  c #4C4C4C",
"N  c #465B42",
"B  c #4A5251",
"V  c #505252",
"C  c #565857",
"Z  c #545758",
"A  c #575F5D",
"S  c gray36",
"D  c #5C5E5D",
"F  c #4F6947",
"G  c #55724C",
"H  c #5C5F60",
"J  c #596060",
"K  c #5A6261",
"L  c #5B6361",
"P  c #5D6161",
"I  c #616364",
"U  c #646767",
"Y  c #6D6F6F",
"T  c #6D6F70",
"R  c #6E7071",
"E  c #6F7172",
"W  c #737677",
"Q  c #747474",
"!  c #747676",
"~  c #757777",
"^  c #767879",
"/  c #7CA26D",
"(  c #7EA56C",
")  c #81AA6E",
"_  c #7D7F80",
"`  c #828181",
"'  c #808282",
"]  c #818283",
"[  c #828485",
"{  c #828585",
"}  c #838585",
"|  c #828586",
" . c #868888",
".. c #8A8C8D",
"X. c #8B8D8E",
"o. c #8C8E8F",
"O. c #8D8F8F",
"+. c #8D8F90",
"@. c #8E8F90",
"#. c #8D9091",
"$. c #8F9090",
"%. c #8E9091",
"&. c #8F9192",
"*. c #919292",
"=. c #909293",
"-. c #929495",
";. c #949594",
":. c #989798",
">. c gray61",
",. c #9C9D9E",
"<. c #9E9FA0",
"1. c #A1A2A2",
"2. c #AEADAD",
"3. c #ADADAE",
"4. c #B0B0B1",
"5. c #B2B2B3",
"6. c #B4B5B5",
"7. c gray71",
"8. c #B7B7B7",
"9. c #BBBBBB",
"0. c #BCBDBD",
"q. c gray74",
"w. c #BEBEBF",
"e. c #C1C1C1",
"r. c gray77",
"t. c #C7C6C6",
"y. c #C8C8C8",
"u. c #CFCECE",
"i. c #D9D8D8",
"p. c #E9E7E7",
"a. c #ECEAE9",
"s. c #EDEBEA",
"d. c #FDFDFD",
"f. c white",
/* pixels */
"                    %.X X X U %.                                ",
"                g G ) ) ) ) ) ) ) F X %.                        ",
"            %.- ) ) ) ) ) ) ) ) ) ) ) ) ( X                     ",
"          @.( ) ) ) ) ) ) ) ) ) ) ) ) ) ) ) ) #                 ",
"          X ) X > X ) ) ) ) ) ) ) ) ) ) ) ) ) ) X               ",
"          J 1 f.f.f.f.) ) ) ) ) ) ) ) ) ) ) ) ) ) #             ",
"          J f.f.f.f.f.X ) ) ) ) ) ) ) ) ) ) ) ) ) ) X           ",
"          h M f.f.f.f.X ) ) J / ) ) ) ) ) ) ) ) ) ) ) %.        ",
"          X J X f.f.X ) ( ) ) K s J ) ) ) ) ) ) ) ) ) X         ",
"          X v f.] X X 4 t z B A J J X J J ) ) ) ) ) ) N         ",
"            ] x u X X X X X X X X X X X X X J J J J J r         ",
"            X r.1.X X k %.r.3 r.r.;.r.%.- X X %.o.X *           ",
"            X r.X X f.X X 5 %.; w %.X y 6 f.X X r.X             ",
"            %.D x X f.f.f.X w.i.r.3.X f.f.,.> > d %.            ",
"            # y.s.5.~ p X W r.,.w.;.o.X p _ w.s.r.4             ",
"            %.1 g %.%.%.s.r.7.X X r.r.a.%.%.%.v #               ",
"X               %.X X X D r.X X X T r.^ X X X %.              X ",
"    X     X       X @.X Q r.{ 9 X Y r.Z q %.X       X     X     ",
"        X X       X P X r.r.r.9 w.r.r.5.X m X       X X         ",
"          X X X   X n r.0 { <.r.r.-.*.l r.j X   X X X           ",
"              X X X %.r.X 9.*.p.s.2.7.y D %.X X X               ",
"                  @.{ r.r.9.u.B C r.Q r.r.I ]                   ",
"                     .-.r.r.r.R v r.r.r.O.%.                    ",
"                      u %.r.r.r.r.r.r.%.R                       ",
"                        { X %.%.%.%.X O.                        ",
"                        X X 7 %.%.> X X                         ",
"                      X X X X X X X X X X                       ",
"                  X X X X X X     X X X X X X                   ",
"              X X X X       X     X       X X X X               ",
"          X X X X X                         X X X X X           ",
"            X X X                             X X X X           ",
"              X                                 X X             "
};
