/* XPM */
static char *_c787e9e22004f42fdebbba684696631uWHMZhI38cLeo2Xb[] = {
/* columns rows colors chars-per-pixel */
"32 32 236 2 ",
"   c None",
".  c black",
"X  c #060203",
"o  c #080000",
"O  c #12060A",
"+  c #13080C",
"@  c #191617",
"#  c #1D1B1B",
"$  c #1D1B1C",
"%  c #1F1B1C",
"&  c #201D1E",
"*  c #221D1E",
"=  c #211E1F",
"-  c #261F21",
";  c #262324",
":  c #2A2324",
">  c #2D2829",
",  c #2D282A",
"<  c #2F2B2C",
"1  c #2F2C2D",
"2  c #302B2D",
"3  c #322C2D",
"4  c #302D2E",
"5  c #312D2E",
"6  c #312F30",
"7  c #322F30",
"8  c #343031",
"9  c #343132",
"0  c #343232",
"q  c #373636",
"w  c #393334",
"e  c #383435",
"r  c #3A3536",
"t  c #393637",
"y  c #3B3637",
"u  c #3B3737",
"i  c #3C3637",
"p  c #3B3738",
"a  c #3B3839",
"s  c #3C3B3B",
"d  c #403B3C",
"f  c #444142",
"g  c #4B4748",
"h  c #4B4848",
"j  c #545353",
"k  c #555555",
"l  c #595656",
"z  c #5A5858",
"x  c #5F5C5D",
"c  c #5F5D5E",
"v  c #5F5F5F",
"b  c gray39",
"n  c #6C6B6B",
"m  c #6E6D6D",
"M  c #7D7C7C",
"N  c #808080",
"B  c #858484",
"V  c #878686",
"C  c #898888",
"Z  c #908F8F",
"A  c #929089",
"S  c #95938D",
"D  c #949393",
"F  c #959595",
"G  c #969595",
"H  c #999898",
"J  c #9E9D9D",
"K  c #9D9E9D",
"L  c #A09F9B",
"P  c #A3A19E",
"I  c #A4A3A3",
"U  c #A9A8A5",
"Y  c #ACABA7",
"T  c #A9A9A9",
"R  c #B1B1AD",
"E  c #B5B5B1",
"W  c #B7B6B2",
"Q  c #B5B4B5",
"!  c #B7B7B4",
"~  c #B7B7B7",
"^  c gray73",
"/  c #BCBCBC",
"(  c #C2C1BE",
")  c #C3C3C3",
"_  c #C3C4C1",
"`  c #C4C4C2",
"'  c #C6C6C4",
"]  c gray78",
"[  c #C8C8C7",
"{  c #C9C8C7",
"}  c #CCCCCB",
"|  c #CDCDCB",
" . c #CECECE",
".. c gray81",
"X. c #D2D1CF",
"o. c #D0D1D1",
"O. c #D3D2D1",
"+. c #D2D2D2",
"@. c #D5D5D3",
"#. c #D3D3D5",
"$. c gray83",
"%. c #D5D5D5",
"&. c #D5D6D4",
"*. c #D6D6D4",
"=. c #D6D7D6",
"-. c #D7D8DA",
";. c gray85",
":. c #D8D9DB",
">. c #DBDBDA",
",. c #DBDCDB",
"<. c #DCDCDA",
"1. c #DCDCDB",
"2. c #D9DADD",
"3. c #DADBDD",
"4. c #DBDCDE",
"5. c gainsboro",
"6. c #DCDDDC",
"7. c #DDDDDD",
"8. c #DEDEDD",
"9. c #DCDDDF",
"0. c #DDDEE0",
"q. c #DDDFE0",
"w. c #DEDFE0",
"e. c #DEDEE1",
"r. c #DEDFE1",
"t. c #DFE0E1",
"y. c #DEE0E2",
"u. c #DFE0E2",
"i. c gray88",
"p. c #E1E1E1",
"a. c #E1E2E2",
"s. c #E2E2E2",
"d. c gray89",
"f. c #E1E2E4",
"g. c #E2E3E5",
"h. c #E3E4E5",
"j. c #E3E4E6",
"k. c #E3E5E6",
"l. c #E5E4E4",
"z. c #E4E4E5",
"x. c gray90",
"c. c #E4E6E7",
"v. c #E5E6E7",
"b. c #E5E7E7",
"n. c #E6E6E6",
"m. c #E7E7E7",
"M. c #E6E7E8",
"N. c #E6E8E8",
"B. c #E7E8E9",
"V. c #E7E8EA",
"C. c #E7E9EB",
"Z. c gray91",
"A. c #E8E9E9",
"S. c #E9E9E9",
"D. c #E8E9EA",
"F. c #E8E9EB",
"G. c #E9E9EB",
"H. c #E8EAEB",
"J. c #E9EAEB",
"K. c #EAEAEA",
"L. c #EAEAEB",
"P. c gray92",
"I. c #ECECEB",
"U. c #EAEBEC",
"Y. c #EAECEC",
"T. c #EAECED",
"R. c #EBEDED",
"E. c #EBECEE",
"W. c #EDEDEC",
"Q. c #ECECED",
"!. c #ECEDED",
"~. c gray93",
"^. c #ECEDEE",
"/. c #EDEDEE",
"(. c #EDEEEE",
"). c #EEEEEE",
"_. c #EEEFEF",
"`. c #EFEFEF",
"'. c #EFEFF0",
"]. c #EFF0F0",
"[. c gray94",
"{. c #F0F0F1",
"}. c #F0F1F1",
"|. c #F1F1F1",
" X c #F0F1F2",
".X c #F1F1F2",
"XX c #F1F2F2",
"oX c gray95",
"OX c #F2F3F3",
"+X c #F3F3F3",
"@X c #F3F4F3",
"#X c #F2F3F4",
"$X c #F3F3F4",
"%X c #F2F3F5",
"&X c #F4F3F4",
"*X c #F3F4F4",
"=X c #F3F4F5",
"-X c #F4F4F4",
";X c #F5F4F4",
":X c #F4F5F5",
">X c gray96",
",X c #F4F5F6",
"<X c #F5F5F6",
"1X c #F5F6F6",
"2X c #F5F6F7",
"3X c #F6F6F6",
"4X c #F6F6F7",
"5X c #F6F7F7",
"6X c gray97",
"7X c #F7F7F8",
"8X c #F7F8F8",
"9X c #F8F8F8",
"0X c #F8F9F9",
"qX c #F9F9F9",
"wX c #F9F9FA",
"eX c #F8FAFA",
"rX c #F9FAFA",
"tX c #F9FAFB",
"yX c gray98",
"uX c #FAFAFB",
"iX c #FAFBFB",
"pX c #FBFBFB",
"aX c #F9FAFC",
"sX c #FAFBFC",
"dX c #FBFCFC",
"fX c #FBFCFD",
"gX c gray99",
"hX c #FCFCFD",
"jX c #FCFDFD",
"kX c #FDFDFD",
"lX c #FCFDFE",
"zX c #FDFDFE",
"xX c #FDFEFE",
"cX c #FEFEFE",
"vX c #FEFEFF",
"bX c white",
/* pixels */
"                                                                ",
"                    `.].].`.Y.U.D.D.D.P.U.                      ",
"              Y.Y.0XlXlX0X9X}.}.}.}.>X7X0XsX/.t.t.              ",
"          b.D.fX|.|.;X;X>X9X6X>X6X>X>X}.@X}././.%XM.b.          ",
"        k.lXU./.|.;X5X5X9X9X0X9X0X9X6X6X6X>X;X}.'./.0XD.        ",
"      /.lX/.}.>X5X9X9XpXpXpXpXpX0XsXpXpXpX0X9X>X&X>X}.}.fX      ",
"    >XlX&X>X>X0XpXpXpXpXpXpXlXlXlXpXpXpXpXpXpX0X6X>X;X|.>X6X    ",
"    6X6X>X0X0X0XpXpXlXlXlXlXlXlXlXlXlXlXlXpXpXpX0X6X>X>X}.lX0X  ",
"    lX0X9X0XpXpXpXlXpXlXlXlXlXlXlXlXlXlXlXlXlXlXpX0X0X9X&XlXpX  ",
"  0XlX9X0XpXpXlXpXlXlXlXlXlXlXlXlXlXlXlXlXpXpXlXpXlXpX0X>XlXlX  ",
"  pXlXpXpXpXpXpXlXlXlXlXlXlXlXlXlXlXlXpXlXlXlXlXpXlXpXpX0XlXlX  ",
"  pXlX0XlXpXlXlX&Xb.l.&XlXlXlXlXlXlXlXlX9X|./.6XlXlXpXpX0XlXlX  ",
"    lXpXpXlXD.V 7 . . 0 N ;.lXlXlXlXl.G l i a x H b.lXlX0XlX    ",
"    lX0XlXlXC . 2 & % X . . / lXlX{ . . 3 t w : . > Z.lXlXlX    ",
"    6XlXlXpXM . a % & @ q $ . D.lXc . l d i 2 2 0 . 8.lXlX9X    ",
"      lX|.lXG . t > t t 2 . m 5XlX` . i g 0 & : . b 0X>XD.      ",
"      k./.lX^ . f 0 o . ; L ;XlXlXlXX.h . 3 2 s . / lX>Xg.      ",
"        >XlXb.. . O n ~ I.lXlXlXlXlXlX}.I + . . k >X0Xb.        ",
"        /.lXlXl.O.b.pXlXlXpXlX ...=.lXlXlXI.~ P a.lXlXB.        ",
"          lXlXlXlXlXpX0XpXlX0XB Z G lXpXlXlXlXlXfXlX|.          ",
"                I.lX>X0X8XlXD.k T x 0XlX`.=.lX                  ",
"                6X&X' 0X>X>X>X<.m.8.>X0XO.Y lX9X                ",
"                0X*.P [.'./.}.&X@X*X/.%X{ S /.0X                ",
"                lX( L z.b.B.D.b.b.k.g.B.o.A *.0X                ",
"                lXW U 8.2.8.r.r.8.2.2.,.,.Y  .lX                ",
"                lXR ` pX'.%X[.[./.}.}.;X>X` { lX                ",
"                0X~ E X.>.I.0XpX0XlX|./.8.) #.lX                ",
"                %Xa.| 6X8.=.i.8.8.a.;.D.0X8.>XU.                ",
"                  b.sXlX0XlXlXlXpXlXlXlXlX>Xr.                  ",
"                      r.>X>XpX9X7XlX>XD.;.                      ",
"                          a.r.t.r.;.#.                          ",
"                                                                "
};
