/* XPM */
static char *_4b981b7245e4f82fa4e63296827b557TqlsuIrcKdX0vkao[] = {
/* columns rows colors chars-per-pixel */
"32 32 124 2 ",
"   c None",
".  c #3B4336",
"X  c #39443E",
"o  c #444434",
"O  c #514733",
"+  c #51473A",
"@  c #4D4B4B",
"#  c #514D4E",
"$  c #5D4E49",
"%  c #4C4C50",
"&  c #604E48",
"*  c #7D5547",
"=  c #755348",
"-  c #7A5448",
";  c #46506C",
":  c #8F593E",
">  c #945B3E",
",  c #9A5D3D",
"<  c #A05E3C",
"1  c #AB6238",
"2  c #B26436",
"3  c #F87F07",
"4  c #F77F09",
"5  c #E77717",
"6  c #E77817",
"7  c #E87916",
"8  c #E3761B",
"9  c #E77818",
"0  c #EA7918",
"q  c #F37E18",
"w  c #D67125",
"e  c #DB7322",
"r  c #D37128",
"t  c #845746",
"y  c #8B5945",
"u  c #F98005",
"i  c #FF871A",
"p  c #FF8A1B",
"a  c #2D5B8E",
"s  c #335C8E",
"d  c #2C5E93",
"f  c #325E92",
"g  c #296096",
"h  c #336196",
"j  c #3C6193",
"k  c #406293",
"l  c #338ECE",
"z  c #3691D1",
"x  c #2DA8E3",
"c  c #36A9E3",
"v  c #3AA9E4",
"b  c #3AB9ED",
"n  c #43AAE3",
"m  c #4CACE3",
"M  c #52ADE4",
"N  c #5BAFE4",
"B  c #42BAED",
"V  c #5EB1E6",
"C  c #57BEEE",
"Z  c #59BEEE",
"A  c #61B2E6",
"S  c #66C0EF",
"D  c #6BC2EF",
"F  c #71C3EF",
"G  c #7BC6EF",
"H  c #67C4F1",
"J  c #6CC5F1",
"K  c #73C5F0",
"L  c #7BC7F0",
"P  c #7DC9F2",
"I  c #86CBF2",
"U  c #8CCCF2",
"Y  c #94CEF2",
"T  c #94D1F3",
"R  c #9CD1F3",
"E  c #A5D5F4",
"W  c #ABD7F3",
"Q  c #AFDAF5",
"!  c #B3DBF5",
"~  c #BCDEF6",
"^  c #C0DFF6",
"/  c #C5E2F7",
"(  c #C9E4F7",
")  c #C5E4F8",
"_  c #C4E4F8",
"`  c #CBE5F8",
"'  c #CBE7F9",
"]  c #CDE7F9",
"[  c #CFE7F8",
"{  c #CDE6F8",
"}  c #CDE8F9",
"|  c #CDE8F9",
" . c #D0E7F8",
".. c #D2EAFA",
"X. c #D7ECFA",
"o. c #D4E9F9",
"O. c #D8EAF9",
"+. c #D8EBF9",
"@. c #D9EBF9",
"#. c #DCECF8",
"$. c #DCEDFA",
"%. c #DDEEFA",
"&. c #DFEFFA",
"*. c #DBECF9",
"=. c #E1EFFA",
"-. c #E1F0FB",
";. c #E3F1FB",
":. c #E4F1FB",
">. c #E6F1FA",
",. c #E5F2FB",
"<. c #E5F1FB",
"1. c #E8F3FB",
"2. c #EBF4FB",
"3. c #ECF4FB",
"4. c #EBF5FC",
"5. c #ECF5FC",
"6. c #EFF7FC",
"7. c #ECF5FC",
"8. c #F0F7FD",
"9. c #F3F8FD",
"0. c #F1F8FD",
"q. c #FCFDFE",
"w. c #FDFEFE",
"e. c #FAFCFE",
/* pixels */
"                0   0 6   6   9 0   7   0 9   7                 ",
"                p   5 9   p   5 9   p   7 7   p                 ",
"                i   5 5   p   7 7   p   7 7   i                 ",
"              2 3 : 8 r < u > e w , u , w e > 3 1               ",
"          @ # & y % - = # y % - - @ y % - - % y & # @           ",
"        @ # @ @ X O o o O . O o o O . O o o O X @ @ # @         ",
"        @ @ @ O ; f j j f j f f h j j d f j s ; O @ @ @         ",
"      1 $ @ + a z M c v N m v N N v v N M c M l s + @ & 1       ",
"0 p p 4 t X ; z J U X.) K E ` P L | | I U ] T J l ; X y u p p 7 ",
"      : % O d V H %.` 1.! ^ e.K _ +.@.( E w.E J N a O @ y       ",
"7 9 7 e = o h V K 7.L ' ` Z 4.L @.E E -.b $.W H N s o * e 7 0 6 ",
"7 6 7 r = o h A J 7.Y X.^ Z 9.L @.~ ~ $.b 1.W H A a o = w 7 9 7 ",
"      , @ O g A J ~ =.=.U ^ 8.^ E ;.;.R ! 6.o.U N h O # ,       ",
"q p p u t . h V I Z ~ R Z W  .R Z ! Q C Y  .W K N f . y u p p 7 ",
"      > % O g A J Q e.~ K 1.X.=.Y 9.@.C $.o.1.U m f O @ >       ",
"0 9 7 w = o h V P Z O.^ R =.Z 9.I ! $.K 6.D =.! v k o - e 7 9 7 ",
"7 9 9 e = o h V I B  .~ T 1.A 8.D W +.D 0.K -.Q v j o - e 0 9 7 ",
"      > % + g A J R 4.=.R 1.1.o.I =.9.R @.@.=.I M h O @ >       ",
"q p p 4 t . h A K U ( ~ K I ^ P G Q ! U L o.T H A s . y u p p 0 ",
"      , % O g A J ~ $.=.Y ) 9.P I 1. .b ..&.-.I M f O # ,       ",
"0 0 7 r = o d A J 7.Y  .) U 9.U F ( $.K 9.L ,.Q v k o = w 7 7 7 ",
"7 5 6 e = o h V K 7.P ] ) b 1.I b Q o.D 0.A %.Q v j o - e 7 7 7 ",
"      > % O d A J +.o.>.E W w.! G +.9.U ,.| 1.T m s O % >       ",
"0 p i 4 t X ; z J U ] ! J ~ _ ! Y / / R T | E J l ; X y u i p 7 ",
"      1 $ @ + d z m x n V v c n M c c m M x n l s O @ $ 1       ",
"        # @ @ + ; s k j d j j j h j j f h k s ; + @ @ #         ",
"        @ # @ @ X O o o O . O o o O . O o o O X @ @ # @         ",
"          @ @ $ y % - = # y @ * - # y # - * % y $ @ @           ",
"              2 3 : 8 r < 3 > e w , u , e e > u 1               ",
"                i   9 7   p   6 5   p   7 7   i                 ",
"                p   6 9   p   9 9   p   9 7   p                 ",
"                0   0 7   7   0 9   7   0 9   7                 "
};
