/* XPM */
static char *_7d1f03dec224683b9e68aefd08d8828lIvIdV8CaqZjz9Dw[] = {
/* columns rows colors chars-per-pixel */
"32 32 6 1 ",
"  c black",
". c gray20",
"X c #9C4A00",
"o c #CC6A14",
"O c #E5968A",
"+ c #FFCEC6",
/* pixels */
".                              .",
"X++++++++++++++++++++++++++++++.",
"+XO+O+O+O+O+O+O+O+O+O+O+O+O+O+. ",
"+OXO+O+O+O+O+O+O+O+O+O+O+O+O+.  ",
"++OXOOOOOOOOOOOOOOOOOOOOOOOO.   ",
"+O+OXoOoOoOoOoOoOoOoOoOoOoO.    ",
"++OOOXoOoOoOoOoOoOoOoOoOoO.     ",
"+O+OoOXoooooooooooooooooo.      ",
"++OOOooXXXXXXXXXXXXXXXXX.       ",
"+O+OoOoXOOOOOOOOOOOOOOOX.       ",
"++OOOooXOXXoXoXoXoXoXooX.       ",
"+O+OoOoXOXoXoXoXoXoXoXoX.       ",
"++OOOooXOoXoXoXoXXXXXooX.       ",
"+O+OoOoXOXoXoXoXXXXXXXoX.       ",
"++OOOooXOoXoXXXXXXXXXooX.       ",
"+O+OoOoXOXoXoXXXXXXXXXoX.       ",
"++OOOooXOoXoXXXXXXXXXXoX.       ",
"+O+OoOoXOXoXXXXXXXXXXXoX.       ",
"++OOOooXOoXXXXXXXXXXXXoX.       ",
"+O+OoOoXOXoXXXXXXXXXoXoX.       ",
"++OOOooXOoXXXXXXXXXoXXoX.       ",
"+O+OoOoXOXoXXXXXXXoXoXoX.       ",
"++OOOooXOoXoXXXXXXXoXXoX.       ",
"+O+OoOoXOXoXoXoXXXXXXXoX.       ",
"++OOOooXOooooooooooooooX.       ",
"+O+OoOoX.................       ",
"++OOOoX                  .      ",
"+O+OoX                    .     ",
"++OOX                      .    ",
"+O+X                        .   ",
"++X                          .  ",
"+X                            . "
};
