/* XPM */
static char *_9daeb01d98d4eb4fa7540ecf9b494f7OZXyhJBsnv1hx3jb[] = {
/* columns rows colors chars-per-pixel */
"32 32 186 2 ",
"   c None",
".  c #497205",
"X  c #557100",
"o  c #587700",
"O  c #5B7B00",
"+  c #5C7B12",
"@  c #9B0006",
"#  c #9C0508",
"$  c #9E1D04",
"%  c #A92902",
"&  c #B52E02",
"*  c #B63101",
"=  c #BA3300",
"-  c #C33A00",
";  c #C53A00",
":  c #D03E0D",
">  c #967D00",
",  c #977F0C",
"<  c #947E11",
"1  c #847A0A",
"2  c #CB4102",
"3  c #C44A00",
"4  c #D34501",
"5  c #DC4B01",
"6  c #E55100",
"7  c #ED5501",
"8  c #F55B00",
"9  c #F95911",
"0  c #DE6600",
"q  c #FC6203",
"w  c #FE690C",
"e  c #FE680A",
"r  c #FE6D12",
"t  c #FF7314",
"y  c #FE741A",
"u  c #FF7D1E",
"i  c #FF7817",
"p  c #CE4821",
"a  c #FE7D23",
"s  c #EE7A3E",
"d  c #F56725",
"f  c #3C9C00",
"g  c #5C8101",
"h  c #5A8707",
"j  c #5F9608",
"k  c #5B8311",
"l  c #618601",
"z  c #648C00",
"x  c #659301",
"c  c #6A9D00",
"v  c #619C01",
"b  c #64931E",
"n  c #6AA401",
"m  c #6FAB00",
"M  c #66AB00",
"N  c #71AF00",
"B  c #73B301",
"V  c #79BD01",
"C  c #78B807",
"Z  c #739E31",
"A  c #77AF2F",
"S  c #7EC401",
"D  c #77C706",
"F  c #9B8200",
"G  c #948203",
"H  c #9C8413",
"J  c #9F8815",
"K  c #A58B01",
"L  c #AB8E02",
"P  c #A48907",
"I  c #AB9400",
"U  c #B39200",
"Y  c #B69804",
"T  c #A48B1B",
"R  c #A88C13",
"E  c #AA9025",
"W  c #C39D00",
"Q  c #FF8019",
"!  c #CCA301",
"~  c #C5A408",
"^  c #D4AB03",
"/  c #D6AB05",
"(  c #DDB20A",
")  c #D7B102",
"_  c #CAAC16",
"`  c #E1B60D",
"'  c #E5B906",
"]  c #E5BB12",
"[  c #E8BE14",
"{  c #FE832B",
"}  c #FF882D",
"|  c #FE8731",
" . c #FE8D3A",
".. c #FE8A35",
"X. c #FF923F",
"o. c #DFB721",
"O. c #C4A13C",
"+. c #E2BB2A",
"@. c #83CB02",
"#. c #80C603",
"$. c #86D102",
"%. c #8AD403",
"&. c #8DDB02",
"*. c #91DE04",
"=. c #89D01C",
"-. c #93E303",
";. c #99EC05",
":. c #97E906",
">. c #9DF304",
",. c #9EF309",
"<. c #95E01F",
"1. c #9FF214",
"2. c #A2FA05",
"3. c #A3FA09",
"4. c #A8FC08",
"5. c #91D43E",
"6. c #FECC01",
"7. c #FFCE0B",
"8. c #F5C703",
"9. c #FFD101",
"0. c #FFDC01",
"q. c #FFD50C",
"w. c #EDC218",
"e. c #F5C917",
"r. c #FFD216",
"t. c #FFD21C",
"y. c #FFDB15",
"u. c #FFE000",
"i. c #F6CB21",
"p. c #F9CE23",
"a. c #FDD123",
"s. c #FFD92A",
"d. c #F2C935",
"f. c #FE9343",
"g. c #FE9B4C",
"h. c #FE9749",
"j. c #FE9E52",
"k. c #F39B5D",
"l. c #EC8D57",
"z. c #FFA04D",
"x. c #FEA156",
"c. c #FEA459",
"v. c #FFB060",
"b. c #FFDA49",
"n. c #001BCC",
"m. c #1925CA",
"M. c #282ECA",
"N. c #3133CC",
"B. c #2B35DE",
"V. c #2B3ADB",
"C. c #2C33D7",
"Z. c #2F38E4",
"A. c #3546DB",
"S. c #3749E4",
"D. c #3D52E6",
"F. c #2C4BE4",
"G. c #6C7ADE",
"H. c #455AE7",
"J. c #4C65EA",
"K. c #446BFF",
"L. c #526DF1",
"P. c #516CF9",
"I. c #4975FF",
"U. c #557DFF",
"Y. c #5C7CFB",
"T. c #5874F5",
"R. c #637FFF",
"E. c #6379E8",
"W. c #5C82FF",
"Q. c #6484FD",
"!. c #678AFF",
"~. c #6B8CFF",
"^. c #718FFF",
"/. c #7694FF",
"(. c #7A96FF",
"). c #7D99FE",
"_. c #829DFF",
"`. c #889FFD",
"'. c #86A2FF",
"]. c #8BA4FF",
"[. c #8BA8FF",
"{. c #94ABFF",
"}. c #99AFFF",
"|. c #9CB2FF",
" X c #A4B8FF",
".X c #ADC2FF",
/* pixels */
"                                                                ",
"                                                                ",
"                    j.g.| y q                                   ",
"              r { g.v.g.} t q 7 2                               ",
"              Q | g.c.f.a e 7 4 = &                             ",
"            w a  .j.j...y q 7 4 = $   b                         ",
"            r a f.c.g.{ t 8 5 ; = @   l + Z               5.A   ",
"            i { h.c.f.{ w 8 5 ; *     O O c C C =.<.1.1.:.*.m   ",
"          w u ..j.x. .a e 7 4 = %   x X l c B #.-.>.4.2.&.S h   ",
"          w a  .x.j.| y 8 6 ; = #   g X z n C #.*.;.3.;.&.S .   ",
"          t { f.c.h.{ r 8 5 ; * #   O O x m C $.-.,.3.-.$.B     ",
"          i | g.c.X.u e 8 4 = &   j o O c N D %.-.3.,.-.@.x     ",
"        w } f.c.k.l.s d 9 4 * $   h X z n B #.&.;.2.>.&.S h     ",
"        d 0               p : @   h X z n V @.*.,.2.:.%.V       ",
"                [.).!.      3     O O c m C $.-.,.2.-.@.n       ",
"        I.^.|..X|.'./.Q.J.F.    k O l c B S %.:.3.>.-.$.h       ",
"      K.!./.{.|.'./.Q.T.D.S.N.    . z B S %.-.3.4.4.&.v         ",
"      K.Q._.|.}._.^.Q.J.S.B.n.  E       M C #.$.D f             ",
"      U.~.'. X]._.~.Y.H.A.B.    T R O.              b.+.        ",
"    K.W.^.{.|.].(.~.T.H.V.M.  I H K ! ` o.d.d.s.q.0.u.~         ",
"    K.Q.).}.}._./.Q.L.D.B.m.  J > U W / ' e.a.r.6.6.9.T         ",
"    I.!._.|.{._.^.Y.J.A.B.    T > U ! / ] w.a.r.6.6.8.          ",
"    U./.]. X].).~.T.H.A.C.  Y H K U ! ( [ e.a.7.6.6.^           ",
"  K.W./.}.|.'./.~.L.D.B.M.  K , L W / ` w.p.a.6.6.9.Y           ",
"  I.~.]. X|.'.).~.P.A.Z.n.  T > U W / ] w.p.r.6.6.9.<           ",
"  U.E.G.          J.D.Z.    T F U ! ( [ i.p.r.6.9.'             ",
"                      A.  I H K Y ^ ( w.p.a.7.6.9.~             ",
"                          G K L W / ` w.p.r.9.9.0.P             ",
"                            1 L / ' e.r.s.y.9.) P               ",
"                                  ~ _ _ _ Y                     ",
"                                                                ",
"                                                                "
};
