/* XPM */
static char *_3b6a389407b45d2c85c775dd6fed44d4i9kWXpmuDkGJ7nD[] = {
/* columns rows colors chars-per-pixel */
"32 32 109 2 ",
"   c None",
".  c #007E00",
"X  c #008000",
"o  c #008100",
"O  c #008200",
"+  c #008400",
"@  c #008500",
"#  c #008700",
"$  c #008A17",
"%  c #008D1D",
"&  c #008C20",
"*  c #008D24",
"=  c #008D29",
"-  c #009722",
";  c #009127",
":  c #009529",
">  c #00962F",
",  c #0A8F31",
"<  c #0D8E32",
"1  c #0E8F33",
"2  c #0F8F33",
"3  c #118F33",
"4  c #128F33",
"5  c #138F33",
"6  c #108F34",
"7  c #138E34",
"8  c #128F34",
"9  c #138F34",
"0  c #128F35",
"q  c #138F35",
"w  c #148F34",
"e  c #148F35",
"r  c #1A8F37",
"t  c #069031",
"y  c #109033",
"u  c #109034",
"i  c #129034",
"p  c #139034",
"a  c #129134",
"s  c #139134",
"d  c #139035",
"f  c #129135",
"g  c #139135",
"h  c #109334",
"j  c #139235",
"k  c #139335",
"l  c #149034",
"z  c #149134",
"x  c #149035",
"c  c #149135",
"v  c #149335",
"b  c #149336",
"n  c #169236",
"m  c #149436",
"M  c #149536",
"N  c #159537",
"B  c #149636",
"V  c #149637",
"C  c #149737",
"Z  c #1A9037",
"A  c #119937",
"S  c #149837",
"D  c #1D9038",
"F  c #1D9139",
"G  c #149938",
"H  c #159938",
"J  c #149A38",
"K  c #159A38",
"L  c #159B38",
"P  c #159D39",
"I  c #159E39",
"U  c #159E3A",
"Y  c #159F3A",
"T  c #1C983A",
"R  c #22913B",
"E  c #24923C",
"W  c #25933D",
"Q  c #21973C",
"!  c #28913E",
"~  c #2A923F",
"^  c #15A03A",
"/  c #15A13A",
"(  c #16A63C",
")  c #17AC3E",
"_  c #2C9241",
"`  c #269A40",
"'  c #269C40",
"]  c #339445",
"[  c #3A954A",
"{  c #389A4A",
"}  c #499956",
"|  c #499A56",
" . c #4B9A57",
".. c #5B9F64",
"X. c #62A26B",
"o. c #7DAD84",
"O. c #7EAE85",
"+. c #95BA9A",
"@. c #AAC6AD",
"#. c #CCDCCE",
"$. c #CDDDCE",
"%. c #DDE7DE",
"&. c #ECF2ED",
"*. c #EEF5EF",
"=. c #F2F6F3",
"-. c #F3F7F3",
";. c #F7FAF8",
":. c #FAFBFA",
">. c white",
/* pixels */
"9 9 9 9 9 9 9 9 k 9 9 k 9 9 9 9 9 k 9 9 k 9 9 9 9 9 9 9 9 9 9 9 ",
"9 9 9 9 9 9 9 k c M c M V M M M M c M c c M c V k 9 9 9 9 9 9 9 ",
"9 9 9 9 9 9 k                                     k 9 9 9 9 9 9 ",
"9 9 9 9 9 9 k                                     c 9 k 9 9 9 9 ",
"9 9 9 9 9 9 k         k / Y k                     c 9 9 9 9 9 9 ",
"9 9 9 9 9 9 k         V 9 9 M                     c 9 9 9 9 9 9 ",
"9 9 9 9 9 9 k         k V V M                     M 9 k 9 9 9 9 ",
"9 9 9 9 9 9 k           9 9                       c 9 9 9 9 9 9 ",
"9 9 9 9 9 9 k             c k 9 9 k 9 9 w         M 9 k 3 9 9 9 ",
"9 9 9 9 9 9 9           k K M V M M Y Y Y k       c w w w w 9 9 ",
"9 9 9 9 9 9 c         k ' D 9 w 9 9 k c 9 Y w     M 3 3 9 9 9 9 ",
"9 9 9 9 9 9 k       , Q + & D < 9 9       c k     M w k 9 9 9 9 ",
"9 9 9 9 9 9 k E   E { O +.O.+ ! < K 9     c ( 9   M 3 k 9 9 9 9 ",
"9 9 9 9 9 9 w : - t . X.>.#.O _ w k w       K 9   c w 9 9 9 9 9 ",
"9 9 9 9 9 9 < [ | | O.&.>.=.| $ E 9 K             M 9 9 9 9 9 9 ",
"9 9 9 9 r 3 = %.;.-.>.>.:.>.@.O ! 3 K 9           c 9 9 9 9 9 9 ",
"9 9 9 9 Z 9 * *.>.>.>.>.>.>.#.+ ! 9 M w           c w w 9 9 9 9 ",
"9 9 9 9 c w t               ..; r w M 9           M 3 k 9 9 9 9 ",
"9 9 9 9 3 w c               % T 9 c K 9           w 9 9 9 9 9 9 ",
"9 9 9 9 9 w k             ] T M     Y 9           Y 9 9 9 9 9 9 ",
"9 9 9 9 9 9 k             k k k     V c           k 9 k 3 9 9 9 ",
"9 9 9 9 9 9 k           9 M M       k k k k 3 9 w c   9 c w 9 9 ",
"9 9 9 9 9 9 k           k k k       M c K Y Y Y Y ) w 9 K 9 9 9 ",
"9 9 9 9 9 9 k         k V M         k 9 w 9 k 9 3 w k   9 k 9 9 ",
"9 9 9 9 9 9 k         9 c k                       w k 9 9 9 9 9 ",
"9 9 9 9 9 9 k       9 M M k                       Y K K k 9 9 9 ",
"9 9 9 9 9 9 k       K Y 9                         9 9 9 9 9 9 9 ",
"9 9 9 9 9 9 k       9 9                           M 9 9 9 9 9 9 ",
"9 9 9 9 9 9 M         w                           9 c k 9 9 9 9 ",
"9 9 9 9 9 9 3 k       / Y 9                         9 c 9 9 9 9 ",
"9 9 9 9 9 9 w c c       9 M 9                         9 M 9 9 9 ",
"9 9 9 9 9 9 9 9 k c       9 k k                         9 9 9 9 "
};
